# xmcd
#
# Track frame offsets:
#       150
#       12762
#       32162
#       49772
#       65732
#       82685
#       92947
#       103795
#       119900
#       135600
#       148977
#       162745
#       178562
#       190367
#       199430
#
# Disc length: 2881 seconds
#
# Revision: 2
# Processed by: cddbd v1.5.2PL0 Copyright (c) Steve Scherf et al.
# Submitted via: FreeDbEdit v0.1
# Normalized: r0:DSETVAR1,TDELIM( - )
#
DISCID=e50b3f0f
DTITLE=Various Artist - A Country Christmas
DYEAR=1999
DGENRE=Country
TTITLE0=Roy Clark - Jingle Bells
TTITLE1=Donna Fargo - The First Noel
TTITLE2=John Denver - Christmas Like a Lullaby
TTITLE3=Johnny Paycheck - Honky Tonk Christmas
TTITLE4=Jean Shepard - O Come All Ye Faithfull
TTITLE5=Glen Campbell - Santa Claus Is Coming to Town
TTITLE6=Danny Davis and Nashville Brass - Silent Night
TTITLE7=Johnny Cash - Oh Chrismas Tree
TTITLE8=Hadley Castille - It Came Upon a Midnight Clear
TTITLE9=BJ Thomas - Let It Snow
TTITLE10=Gene Autry - Rudolph, The Red Nosed Reindeer
TTITLE11=Connie Smith - What Child Is This
TTITLE12=John Denver - White Christmas
TTITLE13=Glen Campbell - God Rest Ye Merry Gentlemen
TTITLE14=Johnny Cash - O Little Town of Bethlehem
EXTD=
EXTT0=
EXTT1=
EXTT2=
EXTT3=
EXTT4=
EXTT5=
EXTT6=
EXTT7=
EXTT8=
EXTT9=
EXTT10=
EXTT11=
EXTT12=
EXTT13=
EXTT14=
PLAYORDER=
